<svg height="531.49603" width="708.66138" xmlns="http://www.w3.org/2000/svg" xmlns:xlink="http://www.w3.org/1999/xlink"><marker id="a" orient="auto" overflow="visible" refX="0" refY="0"><path d="m8.7185878 4.0337352-10.9258773-4.01772194 10.9258779-4.01772106c-1.7454984 2.3720609-1.7354408 5.6174519-.0000006 8.035443z" fill-rule="evenodd" stroke-linejoin="round" stroke-width=".625" transform="scale(.6)"/></marker><g transform="translate(0 -520.86605)"><g transform="translate(-14.173235 173.62194)"><path d="m248.0315 237.40156c13.72059.24936 14.06827-8.66609 21.25984-17.71654 3.79631-4.77758 11.85947-10.93251 18.78304-12.5" fill="none" stroke="#000" stroke-width="2" transform="translate(191.33859 442.91338)"/><path d="m248.0315 244.48817c17.72884.71919 21.00527-11.46961 28.34645-21.25984 6.37267-8.49862 14.45168-10.56031 14.17323-10.62992" fill="none" stroke="#ff0" stroke-width="2" transform="translate(191.33859 442.91338)"/><path d="m248.0315 251.57479c17.8211.12036 18.75677-5.16937 31.88976-21.25985 5.66557-6.94142 14.17323-10.62992 14.17323-10.62992" fill="none" stroke="#00f" stroke-width="2" transform="translate(191.33859 442.91338)"/><path d="m248.0315 258.6614c21.23875.11638 20.81905-4.68601 38.97637-24.80315 5.23518-5.80023 10.62993-7.08661 10.62993-7.08661" fill="none" stroke="#f00" stroke-width="2" transform="translate(191.33859 442.91338)"/><path d="m418.11023 673.22833h21.259851v35.433048h-21.259851z" fill="#fff" stroke="#000"/><path d="m418.11024 492.51967 42.51969-.00001 31.88976 3.54331v21.25984l-31.88976 3.54331-42.51969.00001z" fill="#f00"/><path d="m418.11024 545.66928 42.51969-.00001 31.88976 3.54331v21.25984l-31.88976 3.54331h-42.51969z"/><path d="m251.57481 396.85037h21.25984l3.54331 21.25984v42.5197h-28.34646v-42.5197z"/><rect fill="#005" height="357.87399" rx="30.118111" width="212.59842" x="209.05511" y="457.08661"/><path d="m269.29135 457.08658h7.086614v17.716534h-7.086614z" fill="#00002b"/><path d="m287.00787 457.08661h7.086614v17.716534h-7.086614z" fill="#00002b"/><path d="m304.72443 457.08661h7.086614v17.716534h-7.086614z" fill="#00002b"/><path d="m322.44095 457.08661h7.086614v17.716534h-7.086614z" fill="#00002b"/><path d="m340.15747 457.08661h7.086614v17.716534h-7.086614z" fill="#00002b"/><path d="m357.87402 457.08661h7.086614v17.716534h-7.086614z" fill="#00002b"/><rect fill="#00002b" height="7.086614" rx="3.639072" width="134.64565" x="248.03151" y="520.86615"/><rect fill="#00002b" height="7.086614" rx="3.639072" width="134.64565" x="248.03151" y="538.58264"/><rect fill="#00002b" height="7.086614" rx="3.639072" width="134.64565" x="248.03151" y="556.29919"/><rect fill="#00002b" height="7.086614" rx="3.639072" width="134.64565" x="248.03151" y="574.01575"/><rect fill="#00002b" height="7.086614" rx="3.639072" width="134.64565" x="248.03151" y="591.73224"/><path d="m269.29134 632.48029c0 2.93537-2.37959 5.31496-5.31496 5.31496s-5.31496-2.37959-5.31496-5.31496c0-2.93538 2.37959-5.31496 5.31496-5.31496s5.31496 2.37958 5.31496 5.31496z" fill="#f00" transform="matrix(1.1666667 0 0 1.1666667 -45.76772 -104.52757)"/><path d="m269.29134 632.48029c0 2.93537-2.37959 5.31496-5.31496 5.31496s-5.31496-2.37959-5.31496-5.31496c0-2.93538 2.37959-5.31496 5.31496-5.31496s5.31496 2.37958 5.31496 5.31496z" fill="#f00" transform="matrix(1.1666667 0 0 1.1666667 -10.334649 -104.52757)"/><path d="m269.29134 632.48029c0 2.93537-2.37959 5.31496-5.31496 5.31496s-5.31496-2.37959-5.31496-5.31496c0-2.93538 2.37959-5.31496 5.31496-5.31496s5.31496 2.37958 5.31496 5.31496z" fill="#f00" transform="matrix(1.1666667 0 0 1.1666667 25.098422 -104.52757)"/><path d="m269.29134 632.48029c0 2.93537-2.37959 5.31496-5.31496 5.31496s-5.31496-2.37959-5.31496-5.31496c0-2.93538 2.37959-5.31496 5.31496-5.31496s5.31496 2.37958 5.31496 5.31496z" fill="#b7c4c8" transform="matrix(1.1666667 0 0 1.1666667 60.531493 -104.52757)"/><path d="m354.3307 699.8031c0 18.59069-15.07073 33.66142-33.66142 33.66142s-33.66142-15.07073-33.66142-33.66142 15.07073-33.66142 33.66142-33.66142 33.66142 15.07073 33.66142 33.66142z" fill="#00002b" transform="matrix(.94736965 0 0 .94736965 11.561964 42.145873)"/><path d="m273.20479 728.07854c-18.55146-17.4078-19.47857-46.55853-2.07077-65.10999 17.4078-18.55145 46.55853-19.47857 65.10998-2.07077 18.55146 17.4078 19.47857 46.55853 2.07077 65.10999-.10181.1085-.20415.21652-.30702.32403" fill="none" stroke="#00002b" stroke-width="2.166667" transform="matrix(.92307692 0 0 .92307692 34.070274 64.0521)"/><path d="m329.52755 763.58264c0 6.8492-5.55237 12.40158-12.40157 12.40158s-12.40158-5.55238-12.40158-12.40158 5.55238-12.40157 12.40158-12.40157 12.40157 5.55237 12.40157 12.40157z" fill="#b3b3b3" transform="matrix(1.2857132 0 0 1.2857132 -92.378723 -218.16564)"/><g fill="#00002b"><path d="m393.3071 651.96851h28.346457v7.086614h-28.346457z"/><path d="m393.30707 669.685h28.346457v7.086614h-28.346457z"/><path d="m393.30707 687.40155h28.346457v7.086614h-28.346457z"/><path d="m393.30707 705.1181h28.346457v7.086614h-28.346457z"/><path d="m393.30707 722.83466h28.346457v7.086614h-28.346457z"/><path d="m393.30707 740.55115h28.346457v7.086614h-28.346457z"/><path d="m393.30707 758.2677h28.346457v7.086614h-28.346457z"/><path d="m209.05513 651.96851h28.346457v7.086614h-28.346457z"/><path d="m209.05508 669.685h28.346457v7.086614h-28.346457z"/><path d="m209.05508 687.40155h28.346457v7.086614h-28.346457z"/><path d="m209.05508 705.1181h28.346457v7.086614h-28.346457z"/><path d="m209.05508 722.83466h28.346457v7.086614h-28.346457z"/><path d="m209.05508 740.55115h28.346457v7.086614h-28.346457z"/><path d="m209.05508 758.2677h28.346457v7.086614h-28.346457z"/><text font-family="Bitstream Vera Sans" font-size="11" letter-spacing="0" text-anchor="middle" word-spacing="0" x="262.20474" y="623.62201"><tspan font-size="24" text-anchor="middle" x="262.20474" y="623.62201">1</tspan></text><text font-family="Bitstream Vera Sans" font-size="11" letter-spacing="0" text-anchor="middle" word-spacing="0" x="297.63782" y="623.62201"><tspan font-size="24" text-anchor="middle" x="297.63782" y="623.62201">2</tspan></text><text font-family="Bitstream Vera Sans" font-size="11" letter-spacing="0" text-anchor="middle" word-spacing="0" x="333.07086" y="623.62201"><tspan font-size="24" text-anchor="middle" x="333.07086" y="623.62201">3</tspan></text><text font-family="Bitstream Vera Sans" font-size="11" letter-spacing="0" text-anchor="middle" word-spacing="0" x="368.50394" y="623.62201"><tspan font-size="24" text-anchor="middle" x="368.50394" y="623.62201">4</tspan></text></g><path d="m124.01575 233.85825-3.54331 10.62992h7.08662z" fill="#f00" transform="translate(191.33859 442.91338)"/><path d="m297.6378 63.779511c96.27992.834942 109.84251 95.669289 109.84251 95.669289" fill="none" stroke="#f00" stroke-width="14.173228" transform="translate(191.33859 442.91338)"/><path d="m297.6378 116.92912c70.86614 0 92.12598 60.23622 92.12598 60.23622" fill="none" stroke="#000" stroke-width="14.173228" transform="translate(191.33859 442.91338)"/><path d="m70.866142-42.519701c0-28.346457-24.80315-28.346457-24.80315-28.346457" fill="none" stroke="#000" stroke-width="14.173228" transform="translate(191.33859 442.91338)"/></g><text style="font-size:28;letter-spacing:0;word-spacing:0;text-anchor:middle;font-family:Bitstream Vera Sans;writing-mode:lr" x="524.40942" y="963.77948"><tspan font-family="Bitstream Vera Sans" font-size="28" text-anchor="middle" writing-mode="lr" x="524.40942" y="963.77948">Balance</tspan><tspan font-family="Bitstream Vera Sans" font-size="28" text-anchor="middle" writing-mode="lr" x="524.40942" y="1003.7795">Lead</tspan></text><path d="m471.25984 853.93688 53.1496 53.14961v28.34645" fill="none" marker-start="url(#a)" stroke="#000" stroke-width="2.834646"/><text font-family="Bitstream Vera Sans" font-size="28" letter-spacing="0" text-anchor="middle" word-spacing="0" x="620.07874" y="655.51172"><tspan font-family="Bitstream Vera Sans" font-size="28" text-anchor="middle" x="620.07874" y="655.51172">Charging</tspan><tspan font-family="Bitstream Vera Sans" font-size="28" text-anchor="middle" x="620.07874" y="690.51172">Lead</tspan></text><path d="m595.27559 754.72428 24.80315-24.80315v-28.34645" fill="none" marker-start="url(#a)" stroke="#000" stroke-width="2.834646"/><text style="font-size:28;letter-spacing:0;word-spacing:0;text-anchor:middle;font-family:Bitstream Vera Sans;writing-mode:lr" x="301.18109" y="1034.6455"><tspan font-family="Bitstream Vera Sans" font-size="28" text-anchor="middle" writing-mode="lr" x="301.18109" y="1034.6455">Start/Stop Button</tspan></text><path d="m301.1811 960.2361v46.063" fill="none" marker-start="url(#a)" stroke="#000" stroke-width="2.834646"/><text style="font-size:28;letter-spacing:0;word-spacing:0;text-anchor:middle;font-family:Bitstream Vera Sans;writing-mode:lr" x="88.58268" y="899.99994"><tspan font-family="Bitstream Vera Sans" font-size="28" text-anchor="middle" writing-mode="lr" x="88.58268" y="899.99994">Charge</tspan><tspan font-family="Bitstream Vera Sans" font-size="28" text-anchor="middle" writing-mode="lr" x="88.58268" y="939.99994">Current</tspan><tspan font-family="Bitstream Vera Sans" font-size="28" text-anchor="middle" writing-mode="lr" x="88.58268" y="979.99994">Knob</tspan></text><path d="m265.74803 892.91326-35.43307 35.43307h-74.40945" fill="none" marker-start="url(#a)" stroke="#000" stroke-width="2.834646"/><path d="m237.40157 797.24396-35.43307-35.43307h-46.06299" fill="none" marker-start="url(#a)" stroke="#000" stroke-width="2.834646"/><text style="font-size:28;letter-spacing:0;word-spacing:0;text-anchor:middle;font-family:Bitstream Vera Sans;writing-mode:lr" x="99.212601" y="733.46448"><tspan font-family="Bitstream Vera Sans" font-size="28" text-anchor="middle" writing-mode="lr" x="99.212601" y="733.46448">Charge</tspan><tspan font-family="Bitstream Vera Sans" font-size="28" text-anchor="middle" writing-mode="lr" x="99.212601" y="773.46448">Status</tspan><tspan font-family="Bitstream Vera Sans" font-size="28" text-anchor="middle" writing-mode="lr" x="99.212601" y="813.46448">LEDs</tspan></text><text style="font-size:28;letter-spacing:0;word-spacing:0;text-anchor:middle;font-family:Bitstream Vera Sans;writing-mode:lr" x="432.28345" y="574.01569"><tspan font-family="Bitstream Vera Sans" font-size="28" text-anchor="middle" writing-mode="lr" x="432.28345" y="574.01569">Power Lead</tspan></text><path d="m265.74803 563.3857h70.86614" fill="none" marker-start="url(#a)" stroke="#000" stroke-width="2.834646"/></g></svg>