<svg height="350.78738" width="425.19684" xmlns="http://www.w3.org/2000/svg" xmlns:xlink="http://www.w3.org/1999/xlink"><marker id="a" orient="auto" overflow="visible" refX="0" refY="0"><path d="m0 0 5-5-17.5 5 17.5 5-5-5z" fill-rule="evenodd" stroke="#000" stroke-width="1pt" transform="matrix(.4 0 0 .4 4 0)"/></marker><g transform="translate(0 -701.57389)"><g transform="translate(47.834651 38.976198)"><rect fill="none" height="248.03149" rx="12.401575" stroke="#000" stroke-width="2" width="184.25197" x="70.866142" y="733.46454"/><path d="m136.41731 719.29132h53.149605v42.519684h-53.149605z" fill="#4d9f3a"/><path d="m96.732277 719.29132h39.68504v42.519684h-39.68504z" fill="#4d9f3a"/><path d="m189.56693 719.29132h39.68504v42.519684h-39.68504z" fill="#4d9f3a"/><path d="m136.41731 719.29132v42.51968" fill="none" stroke="#000"/><path d="m189.56692 719.29132v42.51968" fill="none" stroke="#000"/><path d="m165.15994 89.181732a5.0507627 5.0507627 0 0 1 -5.05076 5.050763 5.0507627 5.0507627 0 0 1 -5.05077-5.050763 5.0507627 5.0507627 0 0 1 5.05077-5.050762 5.0507627 5.0507627 0 0 1 5.05076 5.050762z" fill="none" stroke="#000" stroke-width=".950292" transform="matrix(1.0523085 0 0 1.0523089 -85.216531 652.01939)"/><path d="m165.15994 89.181732a5.0507627 5.0507627 0 0 1 -5.05076 5.050763 5.0507627 5.0507627 0 0 1 -5.05077-5.050763 5.0507627 5.0507627 0 0 1 5.05077-5.050762 5.0507627 5.0507627 0 0 1 5.05076 5.050762z" fill="none" stroke="#000" stroke-width=".950292" transform="matrix(1.0523085 0 0 1.0523089 74.232288 652.01939)"/><path d="m165.15994 89.181732a5.0507627 5.0507627 0 0 1 -5.05076 5.050763 5.0507627 5.0507627 0 0 1 -5.05077-5.050763 5.0507627 5.0507627 0 0 1 5.05077-5.050762 5.0507627 5.0507627 0 0 1 5.05076 5.050762z" fill="none" stroke="#000" stroke-width=".950292" transform="matrix(1.0523085 0 0 1.0523089 -85.216531 875.24774)"/><path d="m165.15994 89.181732a5.0507627 5.0507627 0 0 1 -5.05076 5.050763 5.0507627 5.0507627 0 0 1 -5.05077-5.050763 5.0507627 5.0507627 0 0 1 5.05077-5.050762 5.0507627 5.0507627 0 0 1 5.05076 5.050762z" fill="none" stroke="#000" stroke-width=".950292" transform="matrix(1.0523085 0 0 1.0523089 74.232289 875.24774)"/><path d="m97.440948 963.0708h58.818897v32.598427h-58.818897z" fill="#4d9f3a"/><path d="m178.93701 962.00781h37.204723v24.80315h-37.204723z" fill="#b3b3b3"/><path d="m90.354324 758.2677h5.314961v8.858268h-5.314961z" fill="#f00"/><path d="m90.354324 758.2677h5.314961l-5.314961 8.85827z" fill="#00f"/><g transform="translate(139.96064 -.000003)"><path d="m90.354324 758.2677h5.314961v8.858268h-5.314961z" fill="#f00"/><path d="m90.354324 758.2677h5.314961l-5.314961 8.85827z" fill="#00f"/></g><path d="m138.188976 784.8425h5.314961v8.858268h-5.314961z" fill="#f00"/><path d="m138.188976 802.559027h5.314961v8.858268h-5.314961z" fill="#00f"/><path d="m182.480319 784.8425h5.314961v8.858268h-5.314961z" fill="#f00"/><path d="m182.480319 802.559027h5.314961v8.858268h-5.314961z" fill="#00f"/><g fill="#0f0" transform="matrix(0 1 -1 0 925.7067 729.92125)"><path d="m90.354324 758.2677h5.314961v8.858268h-5.314961z" fill="#0f0"/><path d="m95.669285 758.2677v8.85827h-5.314961z" fill="#f00"/></g><path d="m182.480319 949.60627h5.314961v8.858268h-5.314961z" fill="#0f0"/><path d="m189.566933 949.60627h5.314961v8.858268h-5.314961z" fill="#f00"/><g transform="translate(1.771644 -.000028)"><path d="m237.40157 905.31494h10.629921v23.031496h-10.629921z"/><rect height="15.944839" rx="2.125984" width="10.629921" x="242.71654" y="908.85828"/><path d="m228.54331 928.34643h19.48819v-23.03149h-19.48819" fill="none" stroke="#b3b3b3" stroke-width="2" transform="translate(0 .000003)"/></g><path d="m122.244093 933.661416h35.43306v17.716536h-35.43306z"/><path d="m124.863966 936.325906h3.543307v3.543307h-3.543307z" fill="#d0a014"/><path d="m124.863966 945.184186h3.543307v3.543307h-3.543307z" fill="#d0a014"/><path d="m133.722224 936.325906h3.543307v3.543307h-3.543307z" fill="#d0a014"/><path d="m133.722224 945.184186h3.543307v3.543307h-3.543307z" fill="#d0a014"/><path d="m142.580494 936.325906h3.543307v3.543307h-3.543307z" fill="#d0a014"/><path d="m142.580514 945.184116h3.543307v3.543307h-3.543307z" fill="#d0a014"/><path d="m151.438764 945.184186h3.543307v3.543307h-3.543307z" fill="#d0a014"/><path d="m151.438764 936.325906h3.543307v3.543307h-3.543307z" fill="#d0a014"/><path d="m79.724406 942.519696h23.031496v12.401575h-23.031496z"/><g fill="#d0a014"><path d="m81.049631 945.177176h2.65748v2.65748h-2.65748z"/><path d="m81.049631 949.606306h2.65748v2.65748h-2.65748z"/><path d="m85.47877 945.177176h2.65748v2.65748h-2.65748z"/><path d="m85.47877 949.606306h2.65748v2.65748h-2.65748z"/><path d="m89.9079 945.177176h2.65748v2.65748h-2.65748z"/><path d="m89.9079 949.606306h2.65748v2.65748h-2.65748z"/><path d="m94.337038 945.177176h2.65748v2.65748h-2.65748z"/><path d="m94.337038 949.606306h2.65748v2.65748h-2.65748z"/><path d="m98.76618 945.177176h2.65748v2.65748h-2.65748z"/><path d="m98.76618 949.606306h2.65748v2.65748h-2.65748z"/></g><g opacity=".2"><g fill="#333"><path d="m76.181099 775.98425h60.236221v60.236221h-60.236221z"/><path d="m189.56693 777.75592h60.236221v60.236221h-60.236221z"/><path d="m147.04724 781.29926h31.889763v35.433071h-31.889763z"/><path d="m81.496056 900.00006h35.433071v35.433071h-35.433071z"/><path d="m219.68503 933.66138h19.48819v19.48819h-19.48819z"/><path d="m158.46666 954.92126h17.716536v15.944881h-17.716536z"/></g><path d="m124.01575 866.33856a17.716536 17.716536 0 0 1 -17.71654 17.71654 17.716536 17.716536 0 0 1 -17.716536-17.71654 17.716536 17.716536 0 0 1 17.716536-17.71653 17.716536 17.716536 0 0 1 17.71654 17.71653z" fill="#b3b3b3" transform="translate(-14.173231 -3.543271)"/><path d="m123.23369 871.54423a17.716536 17.716536 0 0 1 -16.78857 12.51027 17.716536 17.716536 0 0 1 -16.992351-12.23205" fill="#00aad4" transform="translate(-14.173231 -3.543271)"/><path d="m124.01575 866.33856a17.716536 17.716536 0 0 1 -17.71654 17.71654 17.716536 17.716536 0 0 1 -17.716536-17.71654 17.716536 17.716536 0 0 1 17.716536-17.71653 17.716536 17.716536 0 0 1 17.71654 17.71653z" fill="#b3b3b3" transform="translate(26.5748 -3.543272)"/><path d="m123.23369 871.54423a17.716536 17.716536 0 0 1 -16.78857 12.51027 17.716536 17.716536 0 0 1 -16.992351-12.23205" fill="#00aad4" transform="translate(26.5748 -3.543272)"/><path d="m124.01575 866.33856a17.716536 17.716536 0 0 1 -17.71654 17.71654 17.716536 17.716536 0 0 1 -17.716536-17.71654 17.716536 17.716536 0 0 1 17.716536-17.71653 17.716536 17.716536 0 0 1 17.71654 17.71653z" fill="#b3b3b3" transform="translate(86.811022 -3.543271)"/><path d="m123.23369 871.54423a17.716536 17.716536 0 0 1 -16.78857 12.51027 17.716536 17.716536 0 0 1 -16.992351-12.23205" fill="#00aad4" transform="translate(86.811022 -3.543271)"/><path d="m124.01575 866.33856a17.716536 17.716536 0 0 1 -17.71654 17.71654 17.716536 17.716536 0 0 1 -17.716536-17.71654 17.716536 17.716536 0 0 1 17.716536-17.71653 17.716536 17.716536 0 0 1 17.71654 17.71653z" fill="#b3b3b3" transform="translate(127.559054 -3.543272)"/><path d="m123.23369 871.54423a17.716536 17.716536 0 0 1 -16.78857 12.51027 17.716536 17.716536 0 0 1 -16.992351-12.23205" fill="#00aad4" transform="translate(127.559054 -3.543272)"/></g></g><g font-family="Bitstream Vera Sans" transform="translate(-122.24411 -255.11828)"><text x="311.81104" y="1009.8425"><tspan font-size="16" x="311.81104" y="1009.8425">−</tspan></text><text fill="#f00" x="341.92914" y="1009.8425"><tspan font-size="16" x="341.92914" y="1009.8425">+</tspan></text></g><path d="m210.66366 754.72425 40.91115-40.74803h70.86614" fill="none" marker-start="url(#a)" stroke="#000"/><text font-family="DejaVu Sans" x="324.21259" y="719.29114"><tspan font-size="18" x="324.21259" y="719.29114">Power In</tspan></text><path d="m258.4983 754.72425 12.5647-12.40157h51.37795" fill="none" marker-start="url(#a)" stroke="#000"/><text font-family="DejaVu Sans" x="324.21259" y="747.63757"><tspan font-size="18" x="324.21259" y="747.63757">Motor 0</tspan></text><path d="m163.15526 754.72425-12.5647-12.40157h-49.6063" fill="none" marker-start="url(#a)" stroke="#000"/><text font-family="DejaVu Sans" x="30.118114" y="747.63757"><tspan font-size="18" x="30.118114" y="747.63757">Motor 1</tspan></text><path d="m212.59843 868.11008 40.91115 40.74803h69.09449" fill="none" marker-start="url(#a)" stroke="#000"/><g font-family="DejaVu Sans"><text x="324.21259" y="914.17303"><tspan font-size="18" x="324.21259" y="914.17303">Power</tspan></text><text fill="#0f0" x="324.21259" y="926.57458"><tspan font-size="11" x="324.21259" y="926.57458">OK</tspan></text><text fill="#0f0" x="347.24408" y="926.57458"><tspan fill="#f00" font-size="11" x="347.24408" y="926.57458">FAULT</tspan></text></g><path d="m287.00788 800.78724 12.5647-12.40157h22.86837" fill="none" marker-start="url(#a)" stroke="#000"/><text font-family="DejaVu Sans" x="325.98422" y="783.07068"><tspan font-size="18" x="325.98422" y="783.07068">M0 Speed</tspan><tspan font-size="18" x="325.98422" y="805.57068">/ Direction</tspan></text><path d="m134.64567 800.78724-12.5647-12.40157h-22.868365" fill="none" marker-start="url(#a)" stroke="#000"/><text font-family="DejaVu Sans" x="3.543307" y="783.07068"><tspan font-size="18" x="3.543307" y="783.07068">M1 Speed</tspan><tspan font-size="18" x="3.543307" y="805.57068">/ Direction</tspan></text><path d="m246.25985 1031.1021 12.5647 12.4015h63.6164" fill="none" marker-start="url(#a)" stroke="#000"/><text font-family="DejaVu Sans" x="324.21259" y="1048.8188"><tspan font-size="18" x="324.21259" y="1048.8188">USB</tspan></text><path d="m246.25985 993.89748 76.18109-.00077" fill="none" marker-start="url(#a)" stroke="#000"/><text font-family="DejaVu Sans" x="324.21259" y="999.21167"><tspan font-size="18" x="324.21259" y="999.21167">USB Data</tspan></text><path d="m235.62993 985.03921 12.40157-12.40157h74.40945" fill="none" marker-start="url(#a)" stroke="#000"/><text font-family="DejaVu Sans" x="324.21259" y="977.95258"><tspan font-size="18" x="324.21259" y="977.95258">USB Power</tspan></text><path d="m140.68326 1031.1021-12.5647 12.4015h-22.86837" fill="none" marker-start="url(#a)" stroke="#000"/><path d="m168.98947 968.59649-12.5647-12.40157h-49.6063" fill="none" marker-start="url(#a)" stroke="#000"/><text font-family="DejaVu Sans" x="51.355442" y="1048.8188"><tspan font-size="18" x="51.355442" y="1048.8188">Serial</tspan></text><text font-family="DejaVu Sans" x="12.114737" y="950.57068"><tspan font-size="18" x="12.114737" y="950.57068">Expansion</tspan><tspan font-size="18" x="12.114737" y="973.07068">connector</tspan></text></g></svg>