<svg height="1052.3622" width="1098.09" xmlns="http://www.w3.org/2000/svg" xmlns:xlink="http://www.w3.org/1999/xlink"><marker id="a" orient="auto" overflow="visible" refX="0" refY="0"><path d="m8.7185878 4.0337352-10.9258773-4.01772194 10.9258779-4.01772106c-1.7454984 2.3720609-1.7354408 5.6174519-.0000006 8.035443z" fill-rule="evenodd" stroke-linejoin="round" stroke-width=".625" transform="scale(.6)"/></marker><marker id="b" orient="auto" overflow="visible" refX="0" refY="0"><path d="m8.7185878 4.0337352-10.9258773-4.01772194 10.9258779-4.01772106c-1.7454984 2.3720609-1.7354408 5.6174519-.0000006 8.035443z" fill-rule="evenodd" stroke-linejoin="round" stroke-width=".625" transform="scale(-.6)"/></marker><rect fill="none" height="546.43707" ry="16.553793" stroke="#000" stroke-linecap="round" stroke-width="3.562902" width="496.4371" x="332.0683" y="289.47101"/><path d="m264.0719-524.63397h100v140h-100z" fill="#46ab3b" transform="rotate(90)"/><path d="m264.32617-803.9007h100v100h-100z" fill="#46ab3b" transform="rotate(90)"/><g font-family="Bitstream Vera Sans" font-size="16" transform="matrix(2.4832929 0 0 2.4832929 -382.7215928552 -2257.36142459349)"><text x="311.81104" y="1009.8425"><tspan x="311.81104" y="1009.8425">−</tspan></text><text fill="#f00" x="350.78741" y="1009.8425"><tspan x="350.78741" y="1009.8425">+</tspan></text></g><path d="m774.26013-541.79309h80v170h-80z" fill="#46ab3b" transform="rotate(90)"/><g transform="matrix(-1.6812318 0 0 -1.6812318 760.27119 2263.8478)"><path d="m237.40157 905.31494h10.629921v23.031496h-10.629921z"/><rect height="15.944839" rx="2.125984" width="10.629921" x="242.71654" y="908.85828"/><path d="m228.54331 928.34643h19.48819v-23.03149h-19.48819" fill="none" stroke="#b3b3b3" stroke-width="2" transform="translate(0 .000003)"/></g><path d="m632.19275 799.47968h62.828136v46.43819h-62.828136z" fill="#ccc" stroke="#000" stroke-width="4.971617"/><path d="m358.97766 388.8576h20v20h-20z" fill="#0f0"/><path d="m575.40137 697.42419h20v20h-20z" fill="#0f0"/><path d="m711.93103 642.28772h20v20h-20z" fill="#0f0"/><text font-family="Bitstream Vera Sans" font-size="39.732685" x="706.74414" y="250.13058"><tspan x="706.74414" y="250.13058">−</tspan></text><text fill="#f00" font-family="Bitstream Vera Sans" font-size="39.732685" x="773.53394" y="250.13058"><tspan x="773.53394" y="250.13058">+</tspan></text><g fill="none"><path d="m296 468.36218h83.0069" stroke="#f6e062" stroke-width="8"/><path d="m296 488.36218h83.0069" stroke="#f6e062" stroke-width="8"/><path d="m296 508.36218h83.0069" stroke="#f6e062" stroke-width="8"/><path d="m296 528.36218h83.0069" stroke="#f6e062" stroke-width="8"/><path d="m296 548.36218h83.0069" stroke="#f6e062" stroke-width="8"/><path d="m296 568.36218h83.0069" stroke="#f6e062" stroke-width="8"/><path d="m296 588.36218h83.0069" stroke="#f6e062" stroke-width="8"/><path d="m296 608.36218h83.0069" stroke="#f6e062" stroke-width="8"/><path d="m389.46949 455.32811v165.38107" stroke="#000" stroke-width="20.299999"/><path d="m856.1463 505.60225h-83.0069" stroke="#f6e062" stroke-width="8"/><path d="m856.1463 525.60225h-83.0069" stroke="#f6e062" stroke-width="8"/><path d="m856.1463 545.60225h-83.0069" stroke="#f6e062" stroke-width="8"/><path d="m856.1463 565.60225h-83.0069" stroke="#f6e062" stroke-width="8"/><path d="m764.24628 494.55369v84.09108" stroke="#000" stroke-width="20.070984"/><path d="m275.48182 337.06921 39.38467 60.19609h40.21004" marker-end="url(#b)" stroke="#000" stroke-width="3"/><path d="m742.32846 653.23794h160.20212" marker-start="url(#a)" stroke="#000" stroke-width="3"/><path d="m892.87826 795.35827h-121.54525l-92.54013-87.03643h-75.96579" marker-end="url(#b)" stroke="#000" stroke-width="3"/></g></svg>