<svg height="480" viewBox="0 0 2870 480" width="2870" xmlns="http://www.w3.org/2000/svg"><g fill="#fff" fill-rule="evenodd"><path d="m622 328.5c-12.00006 0-22.66662-1.499985-32-4.5s-18.083292-8.083298-26.25-15.25c-4.500023-4.00002-6.75-8.416642-6.75-13.25 0-3.833352 1.416653-7.208319 4.25-10.125s6.24998-4.375 10.25-4.375c3.166682 0 5.999987.99999 8.5 3 6.6667 5.500027 13.166635 9.499987 19.5 12s13.83329 3.75 22.5 3.75c9.33338 0 17.374966-2.083313 24.125-6.25s10.125-9.333303 10.125-15.5c0-7.500037-3.3333-13.374979-10-17.625s-17.249928-7.458323-31.75-9.625c-36.500183-5.33336-54.75-22.33319-54.75-51 0-10.500053 2.749973-19.624961 8.25-27.375s12.999952-13.666646 22.5-17.75c9.500047-4.083354 20.083275-6.125 31.75-6.125 10.500053 0 20.374954 1.583317 29.625 4.75s16.958302 7.333307 23.125 12.5c4.833358 3.833352 7.25 8.249975 7.25 13.25 0 3.833352-1.416653 7.208319-4.25 10.125s-6.166647 4.375-10 4.375c-2.500013 0-4.74999-.749992-6.75-2.25-4.333355-3.500018-10.374961-6.708319-18.125-9.625s-14.708302-4.375-20.875-4.375c-10.500053 0-18.624971 1.958314-24.375 5.875s-8.625 9.041635-8.625 15.375c0 7.166702 2.958304 12.583315 8.875 16.25s15.20827 6.666655 27.875 9c14.333405 2.500012 25.791624 5.708314 34.375 9.625s15.041645 9.249966 19.375 16 6.5 15.708278 6.5 26.875c0 10.500053-2.958304 19.708294-8.875 27.625s-13.791618 13.999979-23.625 18.25-20.41661 6.375-31.75 6.375zm200-177.5c4.500023 0 8.166653 1.33332 11 4s4.25 6.166645 4.25 10.5-1.416653 7.791654-4.25 10.375-6.499977 3.875-11 3.875h-39.25v131c0 4.333355-1.583318 7.958319-4.75 10.875s-7.08331 4.375-11.75 4.375-8.499985-1.458319-11.5-4.375-4.5-6.541645-4.5-10.875v-131h-39.25c-4.500023 0-8.166653-1.33332-11-4s-4.25-6.166645-4.25-10.5c0-4.166688 1.458319-7.58332 4.375-10.25s6.541645-4 10.875-4zm157.75-.25c4.333355 0 7.83332 1.416652 10.5 4.25s4 6.499977 4 11v90.5c0 13.833403-2.916637 26.08328-8.75 36.75s-13.999947 18.99997-24.5 25-22.499932 9-36 9-25.541614-2.99997-36.125-9-18.791637-14.33328-24.625-25-8.75-22.916597-8.75-36.75v-90.5c0-4.333355 1.499985-7.958319 4.5-10.875s6.83331-4.375 11.5-4.375c4.00002 0 7.499985 1.458319 10.5 4.375s4.5 6.541645 4.5 10.875v90.5c0 8.00004 1.749982 15.124969 5.25 21.375s8.208304 11.04165 14.125 14.375 12.291632 5 19.125 5c7.166702 0 13.874969-1.66665 20.125-5s11.249981-8.124969 15-14.375 5.625-13.37496 5.625-21.375v-90.5c0-4.500023 1.249988-8.166652 3.75-11 2.500013-2.833348 5.916645-4.25 10.25-4.25zm119 .25c15.66674 0 29.12494 3.874961 40.375 11.625s19.8333 18.249934 25.75 31.5 8.875 28.041585 8.875 44.375-2.9583 31.124934-8.875 44.375-14.49994 23.749961-25.75 31.5-24.70826 11.625-40.375 11.625h-59.75c-4.33335 0-7.95832-1.458319-10.875-4.375s-4.375-6.541645-4.375-10.875v-144.5c0-4.333355 1.45832-7.958319 4.375-10.875s6.54165-4.375 10.875-4.375zm-2.5 146.25c15.00007 0 26.24996-5.541611 33.75-16.625s11.25-25.124915 11.25-42.125-3.79163-31.041611-11.375-42.125-18.79159-16.625-33.625-16.625h-41.25v117.5zm197.25 0c4.33335 0 7.95832 1.458319 10.875 4.375s4.375 6.291648 4.375 10.125c0 4.166687-1.45832 7.58332-4.375 10.25s-6.54165 4-10.875 4h-83.75c-4.33335 0-7.95832-1.458319-10.875-4.375s-4.375-6.541645-4.375-10.875v-144.5c0-4.333355 1.45832-7.958319 4.375-10.875s6.54165-4.375 10.875-4.375h83.75c4.33335 0 7.95832 1.374986 10.875 4.125s4.375 6.291645 4.375 10.625c0 4.166688-1.41665 7.541654-4.25 10.125s-6.49998 3.875-11 3.875h-67.75v42.5h56.5c4.33335 0 7.95832 1.374986 10.875 4.125s4.375 6.291645 4.375 10.625c0 4.166687-1.41665 7.541654-4.25 10.125s-6.49998 3.875-11 3.875h-56.5v46.25zm168.75-146.25c4.00002 0 7.24999 1.33332 9.75 4s3.75 5.99998 3.75 10v145.75c0 4.333355-1.45832 7.958319-4.375 10.875s-6.54165 4.375-10.875 4.375c-2.33335 0-4.62499-.374996-6.875-1.125s-3.87499-1.79166-4.875-3.125l-91.75-116.5v106.75c0 4.00002-1.29165 7.33332-3.875 10s-5.95831 4-10.125 4c-4.00002 0-7.24999-1.33332-9.75-4s-3.75-5.99998-3.75-10v-145.75c0-4.333355 1.45832-7.958319 4.375-10.875s6.54165-4.375 10.875-4.375c2.50001 0 4.95832.499995 7.375 1.5s4.20833 2.333325 5.375 4l91 116v-107.5c0-4.00002 1.29165-7.33332 3.875-10s5.87498-4 9.875-4zm158 0c4.50002 0 8.16665 1.33332 11 4s4.25 6.166645 4.25 10.5-1.41665 7.791654-4.25 10.375-6.49998 3.875-11 3.875h-39.25v131c0 4.333355-1.58332 7.958319-4.75 10.875s-7.08331 4.375-11.75 4.375-8.49998-1.458319-11.5-4.375-4.5-6.541645-4.5-10.875v-131h-39.25c-4.50002 0-8.16665-1.33332-11-4s-4.25-6.166645-4.25-10.5c0-4.166688 1.45832-7.58332 4.375-10.25s6.54165-4 10.875-4zm232.75 150.5c2.16668 1.33334 3.87499 3.083323 5.125 5.25s1.875 4.416655 1.875 6.75c0 3.000015-.99999 5.749987-3 8.25-2.50001 3.000015-6.33331 4.5-11.5 4.5-4.00002 0-7.66665-.916657-11-2.75-12.00006-6.833368-18-20.749895-18-41.75 0-6.00003-1.95831-10.749982-5.875-14.25s-9.54163-5.25-16.875-5.25h-46.75v48.5c0 4.500023-1.20832 8.166652-3.625 11s-5.62498 4.25-9.625 4.25c-4.83336 0-9.04165-1.458319-12.625-4.375s-5.375-6.541645-5.375-10.875v-144.5c0-4.333355 1.45832-7.958319 4.375-10.875s6.54165-4.375 10.875-4.375h72c8.66671 0 16.83329 2.33331 24.5 7s13.79164 11.083292 18.375 19.25 6.875 17.333282 6.875 27.5c0 8.333375-2.24998 16.458294-6.75 24.375s-10.3333 14.20831-17.5 18.875c10.50005 7.33337 16.25 17.166605 17.25 29.5.5 2.66668.75 5.249987.75 7.75.66667 5.166693 1.33333 8.874989 2 11.125s2.16665 3.958327 4.5 5.125zm-51.25-65c3.00002 0 5.91665-1.416652 8.75-4.25s5.16666-6.624976 7-11.375 2.75-9.874973 2.75-15.375c0-4.66669-.91666-8.958314-2.75-12.875s-4.16665-7.041655-7-9.375-5.74998-3.5-8.75-3.5h-54.75v56.75zm236.25 2c0 16.500082-3.66663 31.624931-11 45.375s-17.45827 24.62496-30.375 32.625-27.45825 12-43.625 12-30.70827-3.99996-43.625-12-22.99996-18.874931-30.25-32.625-10.875-28.874918-10.875-45.375 3.62496-31.624931 10.875-45.375 17.33327-24.62496 30.25-32.625 27.45825-12 43.625-12 30.70827 3.99996 43.625 12 23.04163 18.874931 30.375 32.625 11 28.874918 11 45.375zm-32.5 0c0-11.166722-2.24998-21.291621-6.75-30.375s-10.74996-16.29164-18.75-21.625-16.99995-8-27-8c-10.16672 0-19.20829 2.624974-27.125 7.875s-14.08331 12.458288-18.5 21.625-6.625 19.333278-6.625 30.5 2.20831 21.333287 6.625 30.5 10.58329 16.374974 18.5 21.625 16.95828 7.875 27.125 7.875c10.00005 0 18.99996-2.66664 27-8s14.24998-12.541621 18.75-21.625 6.75-19.208278 6.75-30.375zm158.25-9.5c8.83338 3.500018 16.04164 8.833298 21.625 16s8.375 16.41661 8.375 27.75c0 19.833432-5.66661 33.666628-17 41.5s-24.83326 11.75-40.5 11.75h-62.25c-4.33335 0-7.95832-1.458319-10.875-4.375s-4.375-6.541645-4.375-10.875v-144.5c0-4.333355 1.45832-7.958319 4.375-10.875s6.54165-4.375 10.875-4.375h63c31.66683 0 47.5 14.833185 47.5 44.5 0 7.500037-1.79165 14.124971-5.375 19.875s-8.7083 10.29165-15.375 13.625zm-11.75-28c0-6.833368-1.70832-11.958316-5.125-15.375s-8.2083-5.125-14.375-5.125h-41.25v39h42c5.00002 0 9.37498-1.66665 13.125-5s5.625-7.833305 5.625-13.5zm-15.75 96.25c7.83337 0 13.95831-2.083313 18.375-6.25s6.625-10.24996 6.625-18.25c0-9.833382-2.58331-16.249985-7.75-19.25s-11.49996-4.5-19-4.5h-43.25v48.25zm239.25-58.75c0 16.500082-3.66663 31.624931-11 45.375s-17.45827 24.62496-30.375 32.625-27.45825 12-43.625 12-30.70827-3.99996-43.625-12-22.99996-18.874931-30.25-32.625-10.875-28.874918-10.875-45.375 3.62496-31.624931 10.875-45.375 17.33327-24.62496 30.25-32.625 27.45825-12 43.625-12 30.70827 3.99996 43.625 12 23.04163 18.874931 30.375 32.625 11 28.874918 11 45.375zm-32.5 0c0-11.166722-2.24998-21.291621-6.75-30.375s-10.74996-16.29164-18.75-21.625-16.99995-8-27-8c-10.16672 0-19.20829 2.624974-27.125 7.875s-14.08331 12.458288-18.5 21.625-6.625 19.333278-6.625 30.5 2.20831 21.333287 6.625 30.5 10.58329 16.374974 18.5 21.625 16.95828 7.875 27.125 7.875c10.00005 0 18.99996-2.66664 27-8s14.24998-12.541621 18.75-21.625 6.75-19.208278 6.75-30.375zm163.25-87.5c4.50002 0 8.16665 1.33332 11 4s4.25 6.166645 4.25 10.5-1.41665 7.791654-4.25 10.375-6.49998 3.875-11 3.875h-39.25v131c0 4.333355-1.58332 7.958319-4.75 10.875s-7.08331 4.375-11.75 4.375-8.49998-1.458319-11.5-4.375c-3.00001-2.916681-4.5-6.541645-4.5-10.875v-131h-39.25c-4.50002 0-8.16665-1.33332-11-4s-4.25-6.166645-4.25-10.5c0-4.166688 1.45832-7.58332 4.375-10.25s6.54165-4 10.875-4zm64.75 159.75c0 4.333355-1.58332 7.958319-4.75 10.875s-6.83331 4.375-11 4.375c-4.50002 0-8.20832-1.458319-11.125-4.375s-4.375-6.541645-4.375-10.875v-144.5c0-4.333355 1.49998-7.958319 4.5-10.875s6.83331-4.375 11.5-4.375c4.16669 0 7.74998 1.458319 10.75 4.375s4.5 6.541645 4.5 10.875zm152-151.25c5.16669 2.66668 7.75 6.916638 7.75 12.75 0 3.500017-1.24999 6.91665-3.75 10.25-2.66668 3.500018-6.08331 5.25-10.25 5.25-2.83335 0-5.66665-.749993-8.5-2.25-8.16671-3.833352-16.99995-5.75-26.5-5.75-11.66673 0-21.83329 2.458309-30.5 7.375s-15.33331 11.833289-20 20.75-7 19.124943-7 30.625c0 19.666765 5.29161 34.583282 15.875 44.75s24.45825 15.25 41.625 15.25c10.16672 0 18.99996-1.916648 26.5-5.75 3.00002-1.33334 5.66665-2 8-2 4.33336 0 7.99998 1.833315 11 5.5 2.50001 3.166682 3.75 6.583315 3.75 10.25 0 2.66668-.66666 5.083323-2 7.25s-3.24999 3.833327-5.75 5c-13.00007 6.500032-26.83326 9.75-41.5 9.75-16.33342 0-31.33327-3.458299-45-10.375s-24.58329-17.124932-32.75-30.625-12.25-29.833237-12.25-49c0-17.000085 3.87496-32.249932 11.625-45.75s18.45827-24.041629 32.125-31.625 29.08325-11.375 46.25-11.375c14.83341 0 28.58327 3.249967 41.25 9.75zm82.5 169c-12.00006 0-22.66662-1.499985-32-4.5s-18.08329-8.083298-26.25-15.25c-4.50002-4.00002-6.75-8.416642-6.75-13.25 0-3.833352 1.41665-7.208319 4.25-10.125s6.24998-4.375 10.25-4.375c3.16668 0 5.99999.99999 8.5 3 6.6667 5.500027 13.16664 9.499987 19.5 12s13.83329 3.75 22.5 3.75c9.33338 0 17.37497-2.083313 24.125-6.25s10.125-9.333303 10.125-15.5c0-7.500037-3.3333-13.374979-10-17.625s-17.24993-7.458323-31.75-9.625c-36.50018-5.33336-54.75-22.33319-54.75-51 0-10.500053 2.74997-19.624961 8.25-27.375s12.99995-13.666646 22.5-17.75 20.08327-6.125 31.75-6.125c10.50005 0 20.37495 1.583317 29.625 4.75s16.9583 7.333307 23.125 12.5c4.83336 3.833352 7.25 8.249975 7.25 13.25 0 3.833352-1.41665 7.208319-4.25 10.125s-6.16665 4.375-10 4.375c-2.50001 0-4.74999-.749992-6.75-2.25-4.33336-3.500018-10.37496-6.708319-18.125-9.625s-14.7083-4.375-20.875-4.375c-10.50005 0-18.62497 1.958314-24.375 5.875s-8.625 9.041635-8.625 15.375c0 7.166702 2.9583 12.583315 8.875 16.25s15.20827 6.666655 27.875 9c14.3334 2.500012 25.79162 5.708314 34.375 9.625s15.04165 9.249966 19.375 16 6.5 15.708278 6.5 26.875c0 10.500053-2.9583 19.708294-8.875 27.625s-13.79162 13.999979-23.625 18.25-20.41661 6.375-31.75 6.375z"/><path d="m427.531721 389.777046c-18.403413 23.04823-41.170948 42.849653-67.53172 58.069051-74.256259 42.871871-165.743743 42.871871-240.000002 0-25.5868807-14.772592-47.7884068-33.862123-65.8996114-56.047553 96.1663744-99.736373 175.6694154-75.438542 175.6694154-110.849711 0-36.891642-137.168549-61.174172-137.168549-86.769572 0-25.484039 80.576686-44.841096 149.196499-45.009051 68.619813.167955 149.196499 19.525012 149.196499 45.009051 0 25.5954-137.168549 49.87793-137.168549 86.769572 0 35.169888 78.423316 11.441681 173.706008 108.828225zm19.958408-29.162588c-51.076539-42.804516-98.630036-69.359725-142.660491-79.665625 21.850805-17.617257 144.782638-62.433191 144.782638-86.423031 0-23.8486-105.703135-80.855064-206.915647-81.525487v-.005965c-.299581 0-.599208.000499-.898876.001494-.299669-.000995-.599295-.001494-.898877-.001494v.005965c-101.212512.670423-206.9156463 57.676887-206.9156463 81.525487 0 23.98984 122.9318333 68.805774 144.7826383 86.423031-44.720768 10.467477-93.0759129 37.697772-145.0654353 81.690885-21.6946624-36.495152-33.70043363-78.71271-33.7004327-122.639718-.00000181-85.743741 45.7437394-164.9742257 119.999999-207.8460967 74.256259-42.8718711 165.743743-42.8718711 240.000002 0 74.25626 42.871871 120.000001 122.1023557 119.999999 207.8460967.000001 43.116781-11.566965 84.58659-32.509871 120.614458z" fill-rule="nonzero"/></g></svg>