<?xml version="1.0" encoding="UTF-8"?>
<svg width="760px" height="760px" viewBox="0 0 760 760" version="1.1" xmlns="http://www.w3.org/2000/svg" xmlns:xlink="http://www.w3.org/1999/xlink">
    <!-- Generator: Sketch 51.2 (57519) - http://www.bohemiancoding.com/sketch -->
    <title>Symbol</title>
    <desc>Created with Sketch.</desc>
    <defs></defs>
    <g id="Symbol" stroke="none" stroke-width="1" fill="none" fill-rule="evenodd">
        <path d="M677.02569,617.021114 C647.869363,653.567926 611.785871,684.964571 570.000002,709.089653 C452.427592,776.970116 307.572408,776.970116 189.999998,709.089653 C149.36918,685.63144 114.129845,655.298111 85.4079934,620.03996 C237.456886,462.354128 363.126983,500.770079 363.126983,444.729182 C363.126983,386.322309 146.13431,347.878191 146.13431,307.355536 C146.13431,266.943768 274.01564,236.263726 382.682384,236.096121 C491.349089,236.263732 619.230396,266.943772 619.230396,307.355536 C619.230396,347.878191 402.237723,386.322309 402.237723,444.729182 C402.237723,500.409576 526.296185,462.844467 677.025674,617.021133 Z M708.597171,570.85047 C627.799489,503.085488 552.57476,461.045059 482.922985,444.729182 C517.489688,416.83753 711.960704,345.884912 711.960704,307.904181 C711.960704,270.064068 544.008577,179.497371 383.576471,178.827268 C383.278469,178.823529 382.98044,178.823842 382.682383,178.824465 C382.384285,178.823842 382.086246,178.823529 381.788235,178.823529 C221.356129,179.497371 53.4040019,270.064068 53.4040019,307.904181 C53.4040019,345.884912 247.875018,416.83753 282.441721,444.729182 C211.759555,461.286427 135.33833,504.334965 53.1780455,573.874794 C18.942376,516.16059 -1.46310367e-06,449.428857 1.13686838e-13,380 C-2.86094746e-06,244.239077 72.4275873,118.790809 189.999998,50.9103468 C307.572408,-16.9701156 452.427592,-16.9701156 570.000002,50.9103468 C687.572413,118.790809 760.000003,244.239077 760,380 C760.000001,448.219405 741.711829,513.834835 708.597171,570.85047 Z" id="Combined-Shape" fill="#FFFFFF" fill-rule="nonzero"></path>
    </g>
</svg>