<svg height="760" viewBox="0 0 760 760" width="760" xmlns="http://www.w3.org/2000/svg"><path d="m677.02569 617.021114c-29.156327 36.546812-65.239819 67.943457-107.025688 92.068539-117.57241 67.880463-262.427594 67.880463-380.000004 0-40.630818-23.458213-75.870153-53.791542-104.5920046-89.049693 152.0488926-157.685832 277.7189896-119.269881 277.7189896-175.310778 0-58.406873-216.992673-96.850991-216.992673-137.373646 0-40.411768 127.88133-71.09181 236.548074-71.259415 108.666705.167611 236.548012 30.847651 236.548012 71.259415 0 40.522655-216.992673 78.966773-216.992673 137.373646 0 55.680394 124.058462 18.115285 274.787951 172.291951zm31.571481-46.170644c-80.797682-67.764982-156.022411-109.805411-225.674186-126.121288 34.566703-27.891652 229.037719-98.84427 229.037719-136.825001 0-37.840113-167.952127-128.40681-328.384233-129.076913-.298002-.003739-.596031-.003426-.894088-.002803-.298098-.000623-.596137-.000936-.894148-.000936-160.432106.673842-328.3842331 91.240539-328.3842331 129.080652 0 37.980731 194.4710161 108.933349 229.0377191 136.825001-70.682166 16.557245-147.103391 59.605783-229.2636755 129.145612-34.2356695-57.714204-53.17804696-124.445937-53.1780455-193.874794-.00000286-135.760923 72.4275873-261.209191 189.999998-329.0896532 117.57241-67.8804624 262.427594-67.8804624 380.000004 0 117.572411 67.8804622 190.000001 193.3287302 189.999998 329.0896532.000001 68.219405-18.288171 133.834835-51.402829 190.85047z" fill="#3270ed"/></svg>