<?xml version="1.0" encoding="UTF-8"?>
<svg width="2870px" height="480px" viewBox="0 0 2870 480" version="1.1" xmlns="http://www.w3.org/2000/svg" xmlns:xlink="http://www.w3.org/1999/xlink">
    <!-- Generator: Sketch 51.2 (57519) - http://www.bohemiancoding.com/sketch -->
    <title>Symbol and Text - White</title>
    <desc>Created with Sketch.</desc>
    <defs></defs>
    <g id="Symbol-and-Text---White" stroke="none" stroke-width="1" fill="none" fill-rule="evenodd">
        <path d="M622,328.5 C609.99994,328.5 599.33338,327.000015 590,324 C580.66662,320.999985 571.916708,315.916702 563.75,308.75 C559.249977,304.74998 557,300.333358 557,295.5 C557,291.666648 558.416653,288.291681 561.25,285.375 C564.083347,282.458319 567.49998,281 571.5,281 C574.666682,281 577.499987,281.99999 580,284 C586.6667,289.500027 593.166635,293.499987 599.5,296 C605.833365,298.500013 613.33329,299.75 622,299.75 C631.33338,299.75 639.374966,297.666687 646.125,293.5 C652.875034,289.333313 656.25,284.166697 656.25,278 C656.25,270.499963 652.9167,264.625021 646.25,260.375 C639.5833,256.124979 629.000072,252.916677 614.5,250.75 C577.999817,245.41664 559.75,228.41681 559.75,199.75 C559.75,189.249947 562.499973,180.125039 568,172.375 C573.500027,164.624961 580.999952,158.708354 590.5,154.625 C600.000047,150.541646 610.583275,148.5 622.25,148.5 C632.750053,148.5 642.624954,150.083317 651.875,153.25 C661.125046,156.416683 668.833302,160.583307 675,165.75 C679.833358,169.583352 682.25,173.999975 682.25,179 C682.25,182.833352 680.833347,186.208319 678,189.125 C675.166653,192.041681 671.833353,193.5 668,193.5 C665.499987,193.5 663.25001,192.750008 661.25,191.25 C656.916645,187.749982 650.875039,184.541681 643.125,181.625 C635.374961,178.708319 628.416698,177.25 622.25,177.25 C611.749947,177.25 603.625029,179.208314 597.875,183.125 C592.124971,187.041686 589.25,192.166635 589.25,198.5 C589.25,205.666702 592.208304,211.083315 598.125,214.75 C604.041696,218.416685 613.33327,221.416655 626,223.75 C640.333405,226.250012 651.791624,229.458314 660.375,233.375 C668.958376,237.291686 675.416645,242.624966 679.75,249.375 C684.083355,256.125034 686.25,265.083278 686.25,276.25 C686.25,286.750053 683.291696,295.958294 677.375,303.875 C671.458304,311.791706 663.583382,317.874979 653.75,322.125 C643.916618,326.375021 633.33339,328.5 622,328.5 Z M822,151 C826.500023,151 830.166653,152.33332 833,155 C835.833347,157.66668 837.25,161.166645 837.25,165.5 C837.25,169.833355 835.833347,173.291654 833,175.875 C830.166653,178.458346 826.500023,179.75 822,179.75 L782.75,179.75 L782.75,310.75 C782.75,315.083355 781.166682,318.708319 778,321.625 C774.833318,324.541681 770.91669,326 766.25,326 C761.58331,326 757.750015,324.541681 754.75,321.625 C751.749985,318.708319 750.25,315.083355 750.25,310.75 L750.25,179.75 L711,179.75 C706.499977,179.75 702.833347,178.41668 700,175.75 C697.166653,173.08332 695.75,169.583355 695.75,165.25 C695.75,161.083312 697.208319,157.66668 700.125,155 C703.041681,152.33332 706.666645,151 711,151 L822,151 Z M979.75,150.75 C984.083355,150.75 987.58332,152.166652 990.25,155 C992.91668,157.833348 994.25,161.499977 994.25,166 L994.25,256.5 C994.25,270.333403 991.333363,282.58328 985.5,293.25 C979.666637,303.91672 971.500053,312.24997 961,318.25 C950.499947,324.25003 938.500068,327.25 925,327.25 C911.499932,327.25 899.458386,324.25003 888.875,318.25 C878.291614,312.24997 870.083363,303.91672 864.25,293.25 C858.416637,282.58328 855.5,270.333403 855.5,256.5 L855.5,166 C855.5,161.666645 856.999985,158.041681 860,155.125 C863.000015,152.208319 866.83331,150.75 871.5,150.75 C875.50002,150.75 878.999985,152.208319 882,155.125 C885.000015,158.041681 886.5,161.666645 886.5,166 L886.5,256.5 C886.5,264.50004 888.249982,271.624969 891.75,277.875 C895.250018,284.125031 899.958304,288.91665 905.875,292.25 C911.791696,295.58335 918.166632,297.25 925,297.25 C932.166702,297.25 938.874969,295.58335 945.125,292.25 C951.375031,288.91665 956.374981,284.125031 960.125,277.875 C963.875019,271.624969 965.75,264.50004 965.75,256.5 L965.75,166 C965.75,161.499977 966.999988,157.833348 969.5,155 C972.000013,152.166652 975.416645,150.75 979.75,150.75 Z M1098.75,151 C1114.41674,151 1127.87494,154.874961 1139.125,162.625 C1150.37506,170.375039 1158.9583,180.874934 1164.875,194.125 C1170.7917,207.375066 1173.75,222.166585 1173.75,238.5 C1173.75,254.833415 1170.7917,269.624934 1164.875,282.875 C1158.9583,296.125066 1150.37506,306.624961 1139.125,314.375 C1127.87494,322.125039 1114.41674,326 1098.75,326 L1039,326 C1034.66665,326 1031.04168,324.541681 1028.125,321.625 C1025.20832,318.708319 1023.75,315.083355 1023.75,310.75 L1023.75,166.25 C1023.75,161.916645 1025.20832,158.291681 1028.125,155.375 C1031.04168,152.458319 1034.66665,151 1039,151 L1098.75,151 Z M1096.25,297.25 C1111.25007,297.25 1122.49996,291.708389 1130,280.625 C1137.50004,269.541611 1141.25,255.500085 1141.25,238.5 C1141.25,221.499915 1137.45837,207.458389 1129.875,196.375 C1122.29163,185.291611 1111.08341,179.75 1096.25,179.75 L1055,179.75 L1055,297.25 L1096.25,297.25 Z M1293.5,297.25 C1297.83335,297.25 1301.45832,298.708319 1304.375,301.625 C1307.29168,304.541681 1308.75,307.916648 1308.75,311.75 C1308.75,315.916687 1307.29168,319.33332 1304.375,322 C1301.45832,324.66668 1297.83335,326 1293.5,326 L1209.75,326 C1205.41665,326 1201.79168,324.541681 1198.875,321.625 C1195.95832,318.708319 1194.5,315.083355 1194.5,310.75 L1194.5,166.25 C1194.5,161.916645 1195.95832,158.291681 1198.875,155.375 C1201.79168,152.458319 1205.41665,151 1209.75,151 L1293.5,151 C1297.83335,151 1301.45832,152.374986 1304.375,155.125 C1307.29168,157.875014 1308.75,161.416645 1308.75,165.75 C1308.75,169.916688 1307.33335,173.291654 1304.5,175.875 C1301.66665,178.458346 1298.00002,179.75 1293.5,179.75 L1225.75,179.75 L1225.75,222.25 L1282.25,222.25 C1286.58335,222.25 1290.20832,223.624986 1293.125,226.375 C1296.04168,229.125014 1297.5,232.666645 1297.5,237 C1297.5,241.166687 1296.08335,244.541654 1293.25,247.125 C1290.41665,249.708346 1286.75002,251 1282.25,251 L1225.75,251 L1225.75,297.25 L1293.5,297.25 Z M1462.25,151 C1466.25002,151 1469.49999,152.33332 1472,155 C1474.50001,157.66668 1475.75,160.99998 1475.75,165 L1475.75,310.75 C1475.75,315.083355 1474.29168,318.708319 1471.375,321.625 C1468.45832,324.541681 1464.83335,326 1460.5,326 C1458.16665,326 1455.87501,325.625004 1453.625,324.875 C1451.37499,324.124996 1449.75001,323.08334 1448.75,321.75 L1357,205.25 L1357,312 C1357,316.00002 1355.70835,319.33332 1353.125,322 C1350.54165,324.66668 1347.16669,326 1343,326 C1338.99998,326 1335.75001,324.66668 1333.25,322 C1330.74999,319.33332 1329.5,316.00002 1329.5,312 L1329.5,166.25 C1329.5,161.916645 1330.95832,158.291681 1333.875,155.375 C1336.79168,152.458319 1340.41665,151 1344.75,151 C1347.25001,151 1349.70832,151.499995 1352.125,152.5 C1354.54168,153.500005 1356.33333,154.833325 1357.5,156.5 L1448.5,272.5 L1448.5,165 C1448.5,160.99998 1449.79165,157.66668 1452.375,155 C1454.95835,152.33332 1458.24998,151 1462.25,151 Z M1620.25,151 C1624.75002,151 1628.41665,152.33332 1631.25,155 C1634.08335,157.66668 1635.5,161.166645 1635.5,165.5 C1635.5,169.833355 1634.08335,173.291654 1631.25,175.875 C1628.41665,178.458346 1624.75002,179.75 1620.25,179.75 L1581,179.75 L1581,310.75 C1581,315.083355 1579.41668,318.708319 1576.25,321.625 C1573.08332,324.541681 1569.16669,326 1564.5,326 C1559.83331,326 1556.00002,324.541681 1553,321.625 C1549.99998,318.708319 1548.5,315.083355 1548.5,310.75 L1548.5,179.75 L1509.25,179.75 C1504.74998,179.75 1501.08335,178.41668 1498.25,175.75 C1495.41665,173.08332 1494,169.583355 1494,165.25 C1494,161.083312 1495.45832,157.66668 1498.375,155 C1501.29168,152.33332 1504.91665,151 1509.25,151 L1620.25,151 Z M1853,301.5 C1855.16668,302.83334 1856.87499,304.583323 1858.125,306.75 C1859.37501,308.916677 1860,311.166655 1860,313.5 C1860,316.500015 1859.00001,319.249987 1857,321.75 C1854.49999,324.750015 1850.66669,326.25 1845.5,326.25 C1841.49998,326.25 1837.83335,325.333343 1834.5,323.5 C1822.49994,316.666632 1816.5,302.750105 1816.5,281.75 C1816.5,275.74997 1814.54169,271.000018 1810.625,267.5 C1806.70831,263.999982 1801.08337,262.25 1793.75,262.25 L1747,262.25 L1747,310.75 C1747,315.250023 1745.79168,318.916652 1743.375,321.75 C1740.95832,324.583348 1737.75002,326 1733.75,326 C1728.91664,326 1724.70835,324.541681 1721.125,321.625 C1717.54165,318.708319 1715.75,315.083355 1715.75,310.75 L1715.75,166.25 C1715.75,161.916645 1717.20832,158.291681 1720.125,155.375 C1723.04168,152.458319 1726.66665,151 1731,151 L1803,151 C1811.66671,151 1819.83329,153.33331 1827.5,158 C1835.16671,162.66669 1841.29164,169.083292 1845.875,177.25 C1850.45836,185.416708 1852.75,194.583282 1852.75,204.75 C1852.75,213.083375 1850.50002,221.208294 1846,229.125 C1841.49998,237.041706 1835.6667,243.33331 1828.5,248 C1839.00005,255.33337 1844.75,265.166605 1845.75,277.5 C1846.25,280.16668 1846.5,282.749987 1846.5,285.25 C1847.16667,290.416693 1847.83333,294.124989 1848.5,296.375 C1849.16667,298.625011 1850.66665,300.333327 1853,301.5 Z M1801.75,236.5 C1804.75002,236.5 1807.66665,235.083348 1810.5,232.25 C1813.33335,229.416652 1815.66666,225.625024 1817.5,220.875 C1819.33334,216.124976 1820.25,211.000027 1820.25,205.5 C1820.25,200.83331 1819.33334,196.541686 1817.5,192.625 C1815.66666,188.708314 1813.33335,185.583345 1810.5,183.25 C1807.66665,180.916655 1804.75002,179.75 1801.75,179.75 L1747,179.75 L1747,236.5 L1801.75,236.5 Z M2038,238.5 C2038,255.000082 2034.33337,270.124931 2027,283.875 C2019.66663,297.625069 2009.54173,308.49996 1996.625,316.5 C1983.70827,324.50004 1969.16675,328.5 1953,328.5 C1936.83325,328.5 1922.29173,324.50004 1909.375,316.5 C1896.45827,308.49996 1886.37504,297.625069 1879.125,283.875 C1871.87496,270.124931 1868.25,255.000082 1868.25,238.5 C1868.25,221.999918 1871.87496,206.875069 1879.125,193.125 C1886.37504,179.374931 1896.45827,168.50004 1909.375,160.5 C1922.29173,152.49996 1936.83325,148.5 1953,148.5 C1969.16675,148.5 1983.70827,152.49996 1996.625,160.5 C2009.54173,168.50004 2019.66663,179.374931 2027,193.125 C2034.33337,206.875069 2038,221.999918 2038,238.5 Z M2005.5,238.5 C2005.5,227.333278 2003.25002,217.208379 1998.75,208.125 C1994.24998,199.041621 1988.00004,191.83336 1980,186.5 C1971.99996,181.16664 1963.00005,178.5 1953,178.5 C1942.83328,178.5 1933.79171,181.124974 1925.875,186.375 C1917.95829,191.625026 1911.79169,198.833288 1907.375,208 C1902.95831,217.166712 1900.75,227.333278 1900.75,238.5 C1900.75,249.666722 1902.95831,259.833287 1907.375,269 C1911.79169,278.166713 1917.95829,285.374974 1925.875,290.625 C1933.79171,295.875026 1942.83328,298.5 1953,298.5 C1963.00005,298.5 1971.99996,295.83336 1980,290.5 C1988.00004,285.16664 1994.24998,277.958379 1998.75,268.875 C2003.25002,259.791621 2005.5,249.666722 2005.5,238.5 Z M2163.75,229 C2172.58338,232.500018 2179.79164,237.833298 2185.375,245 C2190.95836,252.166702 2193.75,261.41661 2193.75,272.75 C2193.75,292.583432 2188.08339,306.416628 2176.75,314.25 C2165.41661,322.083372 2151.91674,326 2136.25,326 L2074,326 C2069.66665,326 2066.04168,324.541681 2063.125,321.625 C2060.20832,318.708319 2058.75,315.083355 2058.75,310.75 L2058.75,166.25 C2058.75,161.916645 2060.20832,158.291681 2063.125,155.375 C2066.04168,152.458319 2069.66665,151 2074,151 L2137,151 C2168.66683,151 2184.5,165.833185 2184.5,195.5 C2184.5,203.000037 2182.70835,209.624971 2179.125,215.375 C2175.54165,221.125029 2170.4167,225.66665 2163.75,229 Z M2152,201 C2152,194.166632 2150.29168,189.041684 2146.875,185.625 C2143.45832,182.208316 2138.6667,180.5 2132.5,180.5 L2091.25,180.5 L2091.25,219.5 L2133.25,219.5 C2138.25002,219.5 2142.62498,217.83335 2146.375,214.5 C2150.12502,211.16665 2152,206.666695 2152,201 Z M2136.25,297.25 C2144.08337,297.25 2150.20831,295.166687 2154.625,291 C2159.04169,286.833313 2161.25,280.75004 2161.25,272.75 C2161.25,262.916618 2158.66669,256.500015 2153.5,253.5 C2148.33331,250.499985 2142.00004,249 2134.5,249 L2091.25,249 L2091.25,297.25 L2136.25,297.25 Z M2375.5,238.5 C2375.5,255.000082 2371.83337,270.124931 2364.5,283.875 C2357.16663,297.625069 2347.04173,308.49996 2334.125,316.5 C2321.20827,324.50004 2306.66675,328.5 2290.5,328.5 C2274.33325,328.5 2259.79173,324.50004 2246.875,316.5 C2233.95827,308.49996 2223.87504,297.625069 2216.625,283.875 C2209.37496,270.124931 2205.75,255.000082 2205.75,238.5 C2205.75,221.999918 2209.37496,206.875069 2216.625,193.125 C2223.87504,179.374931 2233.95827,168.50004 2246.875,160.5 C2259.79173,152.49996 2274.33325,148.5 2290.5,148.5 C2306.66675,148.5 2321.20827,152.49996 2334.125,160.5 C2347.04173,168.50004 2357.16663,179.374931 2364.5,193.125 C2371.83337,206.875069 2375.5,221.999918 2375.5,238.5 Z M2343,238.5 C2343,227.333278 2340.75002,217.208379 2336.25,208.125 C2331.74998,199.041621 2325.50004,191.83336 2317.5,186.5 C2309.49996,181.16664 2300.50005,178.5 2290.5,178.5 C2280.33328,178.5 2271.29171,181.124974 2263.375,186.375 C2255.45829,191.625026 2249.29169,198.833288 2244.875,208 C2240.45831,217.166712 2238.25,227.333278 2238.25,238.5 C2238.25,249.666722 2240.45831,259.833287 2244.875,269 C2249.29169,278.166713 2255.45829,285.374974 2263.375,290.625 C2271.29171,295.875026 2280.33328,298.5 2290.5,298.5 C2300.50005,298.5 2309.49996,295.83336 2317.5,290.5 C2325.50004,285.16664 2331.74998,277.958379 2336.25,268.875 C2340.75002,259.791621 2343,249.666722 2343,238.5 Z M2506.25,151 C2510.75002,151 2514.41665,152.33332 2517.25,155 C2520.08335,157.66668 2521.5,161.166645 2521.5,165.5 C2521.5,169.833355 2520.08335,173.291654 2517.25,175.875 C2514.41665,178.458346 2510.75002,179.75 2506.25,179.75 L2467,179.75 L2467,310.75 C2467,315.083355 2465.41668,318.708319 2462.25,321.625 C2459.08332,324.541681 2455.16669,326 2450.5,326 C2445.83331,326 2442.00002,324.541681 2439,321.625 C2435.99999,318.708319 2434.5,315.083355 2434.5,310.75 L2434.5,179.75 L2395.25,179.75 C2390.74998,179.75 2387.08335,178.41668 2384.25,175.75 C2381.41665,173.08332 2380,169.583355 2380,165.25 C2380,161.083312 2381.45832,157.66668 2384.375,155 C2387.29168,152.33332 2390.91665,151 2395.25,151 L2506.25,151 Z M2571,310.75 C2571,315.083355 2569.41668,318.708319 2566.25,321.625 C2563.08332,324.541681 2559.41669,326 2555.25,326 C2550.74998,326 2547.04168,324.541681 2544.125,321.625 C2541.20832,318.708319 2539.75,315.083355 2539.75,310.75 L2539.75,166.25 C2539.75,161.916645 2541.24998,158.291681 2544.25,155.375 C2547.25002,152.458319 2551.08331,151 2555.75,151 C2559.91669,151 2563.49998,152.458319 2566.5,155.375 C2569.50002,158.291681 2571,161.916645 2571,166.25 L2571,310.75 Z M2723,159.5 C2728.16669,162.16668 2730.75,166.416638 2730.75,172.25 C2730.75,175.750017 2729.50001,179.16665 2727,182.5 C2724.33332,186.000018 2720.91669,187.75 2716.75,187.75 C2713.91665,187.75 2711.08335,187.000007 2708.25,185.5 C2700.08329,181.666648 2691.25005,179.75 2681.75,179.75 C2670.08327,179.75 2659.91671,182.208309 2651.25,187.125 C2642.58329,192.041691 2635.91669,198.958289 2631.25,207.875 C2626.58331,216.791711 2624.25,226.999943 2624.25,238.5 C2624.25,258.166765 2629.54161,273.083282 2640.125,283.25 C2650.70839,293.416718 2664.58325,298.5 2681.75,298.5 C2691.91672,298.5 2700.74996,296.583352 2708.25,292.75 C2711.25002,291.41666 2713.91665,290.75 2716.25,290.75 C2720.58336,290.75 2724.24998,292.583315 2727.25,296.25 C2729.75001,299.416682 2731,302.833315 2731,306.5 C2731,309.16668 2730.33334,311.583323 2729,313.75 C2727.66666,315.916677 2725.75001,317.583327 2723.25,318.75 C2710.24993,325.250032 2696.41674,328.5 2681.75,328.5 C2665.41658,328.5 2650.41673,325.041701 2636.75,318.125 C2623.08327,311.208299 2612.16671,301.000068 2604,287.5 C2595.83329,273.999932 2591.75,257.666763 2591.75,238.5 C2591.75,221.499915 2595.62496,206.250068 2603.375,192.75 C2611.12504,179.249932 2621.83327,168.708371 2635.5,161.125 C2649.16673,153.541629 2664.58325,149.75 2681.75,149.75 C2696.58341,149.75 2710.33327,152.999967 2723,159.5 Z M2805.5,328.5 C2793.49994,328.5 2782.83338,327.000015 2773.5,324 C2764.16662,320.999985 2755.41671,315.916702 2747.25,308.75 C2742.74998,304.74998 2740.5,300.333358 2740.5,295.5 C2740.5,291.666648 2741.91665,288.291681 2744.75,285.375 C2747.58335,282.458319 2750.99998,281 2755,281 C2758.16668,281 2760.99999,281.99999 2763.5,284 C2770.1667,289.500027 2776.66664,293.499987 2783,296 C2789.33336,298.500013 2796.83329,299.75 2805.5,299.75 C2814.83338,299.75 2822.87497,297.666687 2829.625,293.5 C2836.37503,289.333313 2839.75,284.166697 2839.75,278 C2839.75,270.499963 2836.4167,264.625021 2829.75,260.375 C2823.0833,256.124979 2812.50007,252.916677 2798,250.75 C2761.49982,245.41664 2743.25,228.41681 2743.25,199.75 C2743.25,189.249947 2745.99997,180.125039 2751.5,172.375 C2757.00003,164.624961 2764.49995,158.708354 2774,154.625 C2783.50005,150.541646 2794.08327,148.5 2805.75,148.5 C2816.25005,148.5 2826.12495,150.083317 2835.375,153.25 C2844.62505,156.416683 2852.3333,160.583307 2858.5,165.75 C2863.33336,169.583352 2865.75,173.999975 2865.75,179 C2865.75,182.833352 2864.33335,186.208319 2861.5,189.125 C2858.66665,192.041681 2855.33335,193.5 2851.5,193.5 C2848.99999,193.5 2846.75001,192.750008 2844.75,191.25 C2840.41664,187.749982 2834.37504,184.541681 2826.625,181.625 C2818.87496,178.708319 2811.9167,177.25 2805.75,177.25 C2795.24995,177.25 2787.12503,179.208314 2781.375,183.125 C2775.62497,187.041686 2772.75,192.166635 2772.75,198.5 C2772.75,205.666702 2775.7083,211.083315 2781.625,214.75 C2787.5417,218.416685 2796.83327,221.416655 2809.5,223.75 C2823.8334,226.250012 2835.29162,229.458314 2843.875,233.375 C2852.45838,237.291686 2858.91665,242.624966 2863.25,249.375 C2867.58335,256.125034 2869.75,265.083278 2869.75,276.25 C2869.75,286.750053 2866.7917,295.958294 2860.875,303.875 C2854.9583,311.791706 2847.08338,317.874979 2837.25,322.125 C2827.41662,326.375021 2816.83339,328.5 2805.5,328.5 Z" id="STUDENT-ROBOTICS" fill="#FFFFFF"></path>
        <path d="M427.531721,389.777046 C409.128308,412.825276 386.360773,432.626699 360.000001,447.846097 C285.743742,490.717968 194.256258,490.717968 119.999999,447.846097 C94.4131183,433.073505 72.2115922,413.983974 54.1003876,391.798544 C150.266762,292.062171 229.769803,316.360002 229.769803,280.948833 C229.769803,244.057191 92.601254,219.774661 92.601254,194.179261 C92.601254,168.695222 173.17794,149.338165 241.797753,149.17021 C310.417566,149.338165 390.994252,168.695222 390.994252,194.179261 C390.994252,219.774661 253.825703,244.057191 253.825703,280.948833 C253.825703,316.118721 332.249019,292.390514 427.531711,389.777058 Z M447.490129,360.614458 C396.41359,317.809942 348.860093,291.254733 304.829638,280.948833 C326.680443,263.331576 449.612276,218.515642 449.612276,194.525802 C449.612276,170.677202 343.909141,113.670738 242.696629,113.000315 L242.696629,112.99435 C242.397048,112.99435 242.097421,112.994849 241.797753,112.995844 C241.498084,112.994849 241.198458,112.99435 240.898876,112.99435 L240.898876,113.000315 C139.686364,113.670738 33.9832297,170.677202 33.9832297,194.525802 C33.9832297,218.515642 156.915063,263.331576 178.765868,280.948833 C134.0451,291.41631 85.6899551,318.646605 33.7004327,362.639718 C12.0057703,326.144566 -9.25692449e-07,283.927008 5.68434189e-14,240 C-1.80691421e-06,154.256259 45.7437394,75.0257743 119.999999,32.1539033 C194.256258,-10.7179678 285.743742,-10.7179678 360.000001,32.1539033 C434.256261,75.0257743 480.000002,154.256259 480,240 C480.000001,283.116781 468.433035,324.58659 447.490129,360.614458 Z" id="Combined-Shape" fill="#FFFFFF" fill-rule="nonzero"></path>
    </g>
</svg>